# xmcd
#
# Track frame offsets:
# 150
# 22150
# 39867
# 59497
# 73521
# 89989
# 107577
# 124050
# 138670
# 155714
# 171799
# 195498
# 212156
#
# Disc length: 3035 seconds
#
#
# Revision: 0
# Processed by: cddbd v1.4PL0 Copyright (c) Steve Scherf et al.
# Submitted via: FreeRIP 2.40 
#
DISCID=c20bd90d
DTITLE=Dixie Chicks - 
DYEAR=1900
DGENRE=
TTITLE0=Cowboy Take Me Away
TTITLE1=I Can Love You Better
TTITLE2=Good Bye Earl
TTITLE3=If I Fall
TTITLE4=If You Could See Me Now
TTITLE5=Ready to Run
TTITLE6=Sometimes
TTITLE7=There's Your Trouble
TTITLE8=Wide Open Spaces
TTITLE9=Without You
TTITLE10=Cold Day in July
TTITLE11=Working Girl
TTITLE12=Tonight the Heartaches On Me
EXTD=
EXTT0=
EXTT1=
EXTT2=
EXTT3=
EXTT4=
EXTT5=
EXTT6=
EXTT7=
EXTT8=
EXTT9=
EXTT10=
EXTT11=
EXTT12=
PLAYORDER=
